<svg width="56" height="56" viewBox="0 0 56 56" fill="none" xmlns="http://www.w3.org/2000/svg">
<g clip-path="url(#clip0_279_26289)">
<path d="M27.9997 25.3225L23.8161 25.3422C20.7536 25.3892 17.6911 25.4877 14.6833 25.6375C12.2508 25.7469 11.0521 26.1439 10.8366 26.2216L10.806 26.2336C8.73057 27.0262 7.02468 28.5633 6.02081 30.5452C3.43409 35.7952 1.69503 39.7239 0.378157 43.2863C-0.301062 45.0942 -0.0593431 47.1144 1.05519 48.9617C2.35784 51.1252 4.71706 52.7592 7.21409 53.2274C7.26659 53.2372 7.32347 53.2449 7.37488 53.2514C8.96738 53.4286 10.6769 53.5238 10.8508 53.5336C16.5383 53.8945 22.2882 54.0805 27.9997 54.0805C33.7113 54.0805 39.4644 53.8989 45.1486 53.5336C45.3225 53.5238 47.0321 53.4242 48.6246 53.2514C48.6793 53.2449 48.7339 53.2372 48.7853 53.2274C51.2824 52.7592 53.6416 51.1252 54.9443 48.9617C56.0599 47.11 56.3005 45.0942 55.6213 43.2863C54.3088 39.7239 52.5653 35.7963 49.9786 30.5452C48.9748 28.5633 47.2689 27.0262 45.1935 26.2336L45.1628 26.2216C44.9441 26.1439 43.7486 25.7469 41.3161 25.6375C38.3116 25.4877 35.2414 25.3892 32.1833 25.3422L27.9997 25.3225Z" fill="#FFDAA3"/>
<path d="M36.3672 37.4654L48.6172 53.2515C48.6708 53.2449 48.7266 53.2372 48.778 53.2274C51.2783 52.7593 53.6419 51.1252 54.9467 48.9618C56.0634 47.11 56.3041 45.0943 55.6237 43.2863C54.3112 39.724 52.5613 35.7963 49.9734 30.5452C48.9648 28.5613 47.2534 27.0243 45.173 26.2336L36.3672 37.4654Z" fill="#FFB647"/>
<path d="M35.553 37.2662L21.6055 53.9722C23.7536 54.0225 25.8999 54.0476 28.0444 54.0476C33.7647 54.0476 39.5288 53.8661 45.2163 53.5008C45.3913 53.492 47.103 53.3914 48.6988 53.2186L35.553 37.2662Z" fill="#FFB647"/>
<path d="M37.4839 37.0475L49.875 52.9725C49.544 53.0778 49.2068 53.1629 48.8655 53.2273C48.813 53.2372 48.7561 53.2448 48.7047 53.2514C47.8844 53.3422 47.0345 53.4122 46.3772 53.4592L35.5469 39.5412L37.4839 37.0475Z" fill="white"/>
<path d="M37.4834 37.0508L45.7182 26.4688L45.7412 26.4404C45.5851 26.3674 45.4262 26.3011 45.2643 26.2413L45.2337 26.2293C45.051 26.1636 44.1618 25.8694 42.4151 25.7141L42.2455 25.9449L20.4395 53.9711C21.7126 54.0061 22.9853 54.0328 24.2577 54.051L35.5463 39.5446L37.4834 37.0508Z" fill="white"/>
<path fill-rule="evenodd" clip-rule="evenodd" d="M19.4344 2.00001C22.8053 1.99455 26.0046 3.52142 28.5289 6.09173C31.0697 8.68501 32.5769 11.9564 32.6261 15.3569C32.6472 16.8468 32.3844 18.3271 31.8517 19.7188L31.8342 19.7625C31.8014 19.8435 30.9921 21.705 29.1327 24.6089C26.5701 28.5639 23.6008 32.2399 20.2733 35.577C20.1608 35.6919 20.026 35.7825 19.8771 35.8432C19.7282 35.9039 19.5685 35.9334 19.4077 35.9299C19.247 35.9264 19.0887 35.89 18.9426 35.8229C18.7965 35.7558 18.6657 35.6595 18.5583 35.5399C18.5237 35.5023 18.4912 35.4629 18.461 35.4217C9.83455 26.1774 7.0608 19.9605 7.02799 19.7417L7.01924 19.7188C6.48202 18.3144 6.2195 16.8198 6.24596 15.3164C6.41658 8.49798 12.4967 2.11048 19.3425 2.00001H19.4344ZM14.2559 15.3169C14.2406 18.177 16.5878 20.5187 19.4698 20.5187C22.353 20.5144 24.7034 18.1858 24.6837 15.3223C24.6641 12.4589 22.3136 10.069 19.4698 10.0723C16.6261 10.0756 14.2712 12.4567 14.2559 15.3169Z" fill="#F38752"/>
</g>
<defs>
<clipPath id="clip0_279_26289">
<rect width="56" height="56" fill="white"/>
</clipPath>
</defs>
</svg>
